<svg width="268" height="178" viewBox="0 0 268 178" fill="none" xmlns="http://www.w3.org/2000/svg">
<path d="M187.874 73.1894L67.8235 159.712L45.4709 32.9443L187.874 73.1894Z" fill="#F4B24F"/>
<path d="M37.7285 79.8268V87.4987L43.7441 79.8268H53.8848L45.8223 90.3424L55.1348 104.78H43.7441L38.5254 95.9518L37.9473 96.9674V104.78H27.8379V79.8268H37.7285ZM68.666 79.8268L71.5254 88.7174L77.7598 80.358C77.9681 80.0768 78.1243 79.8945 78.2285 79.8112C78.3327 79.7278 78.4889 79.6862 78.6973 79.6862C78.9056 79.6862 79.1712 79.9101 79.4941 80.358L85.3066 88.6237L88.1191 79.8268H97.0566L88.9004 104.139C88.5462 105.181 87.9473 105.702 87.1035 105.702C86.2598 105.702 85.5046 105.223 84.8379 104.264L77.8535 94.1862L70.3379 104.296C69.6608 105.191 68.9056 105.639 68.0723 105.639C67.2389 105.639 66.6296 105.118 66.2441 104.077L57.4629 79.8268H68.666ZM109.744 104.78H100.025V79.8268H109.744V104.78ZM113.557 79.8268C119.88 79.358 124.005 79.1237 125.932 79.1237C127.869 79.1237 129.395 79.3059 130.51 79.6705C131.635 80.0247 132.64 80.5195 133.525 81.1549C135.244 82.3737 136.541 83.9934 137.416 86.0143C138.301 88.0351 138.744 90.082 138.744 92.1549C138.744 94.2278 138.406 96.0403 137.729 97.5924C137.062 99.1341 136.135 100.436 134.947 101.499C132.52 103.697 129.38 104.79 125.525 104.78H113.557V79.8268ZM123.275 87.7487V97.2643C123.827 96.7955 124.426 96.332 125.072 95.8737C127.551 94.0924 128.791 92.2278 128.791 90.2799C128.791 89.332 128.51 88.457 127.947 87.6549C127.385 86.8424 126.65 86.4362 125.744 86.4362C124.848 86.4362 124.025 86.8737 123.275 87.7487ZM151.182 87.3737H142.572V79.8268H166.885V81.733L157.26 97.6393H166.885V104.78H141.619V103.342L151.182 87.3737ZM177.041 95.0455L169.432 79.8268H180.572L183.057 84.9362L185.619 79.8268H194.932L187.166 95.0455V104.78H177.041V95.0455Z" fill="white"/>
</svg>
